<svg data-v-423bf9ae="" xmlns="http://www.w3.org/2000/svg" viewBox="0 0 436.1493994683906 185" class="iconAbove"><!----><!----><!----><g data-v-423bf9ae="" id="eecb40af-9b7e-4cb9-8dbc-5c5b527fdbdb" fill="white" transform="matrix(5.7471261427876925,0,0,5.7471261427876925,-0.977010024785244,82.50415890985498)"><path d="M3.12 8.09L0.17 8.09L0.17 7.24L7.09 7.24L7.09 8.09L4.14 8.09L4.14 17.60L3.12 17.60L3.12 8.09ZM9.04 17.60L8.14 17.60L8.14 7.24L9.04 7.24L9.04 11.57L9.04 11.57Q10.06 10.60 10.71 10.40L10.71 10.40L10.71 10.40Q11.04 10.31 11.40 10.31L11.40 10.31L11.40 10.31Q12.19 10.31 12.69 10.79L12.69 10.79L12.69 10.79Q13.20 11.27 13.20 12.22L13.20 12.22L13.20 17.60L12.30 17.60L12.30 12.22L12.30 12.22Q12.30 11.71 11.93 11.39L11.93 11.39L11.93 11.39Q11.57 11.07 11.14 11.07L11.14 11.07L11.14 11.07Q10.13 11.07 9.04 12.26L9.04 12.26L9.04 17.60ZM15.15 16.58L15.15 16.58L15.15 16.58Q14.81 16.08 14.64 15.47L14.64 15.47L14.64 15.47Q14.46 14.85 14.46 14.18L14.46 14.18L14.46 14.18Q14.46 13.50 14.56 12.94L14.56 12.94L14.56 12.94Q14.66 12.39 14.81 12.00L14.81 12.00L14.81 12.00Q14.97 11.61 15.20 11.30L15.20 11.30L15.20 11.30Q15.42 11.00 15.66 10.81L15.66 10.81L15.66 10.81Q15.90 10.63 16.18 10.51L16.18 10.51L16.18 10.51Q16.67 10.31 17.10 10.31L17.10 10.31L17.10 10.31Q17.54 10.31 17.85 10.39L17.85 10.39L17.85 10.39Q18.16 10.47 18.51 10.71L18.51 10.71L18.51 10.71Q18.86 10.95 19.11 11.35L19.11 11.35L19.11 11.35Q19.70 12.28 19.70 14.09L19.70 14.09L15.37 14.09L15.37 14.09Q15.37 15.91 16.29 16.58L16.29 16.58L16.29 16.58Q16.75 16.91 17.31 16.91L17.31 16.91L17.31 16.91Q18.36 16.91 19.10 15.60L19.10 15.60L19.72 16.03L19.72 16.03Q19.46 16.52 19.02 16.92L19.02 16.92L19.02 16.92Q18.20 17.67 17.40 17.67L17.40 17.67L17.40 17.67Q16.60 17.67 16.04 17.38L16.04 17.38L16.04 17.38Q15.48 17.08 15.15 16.58ZM15.41 13.32L15.41 13.32L18.80 13.32L18.80 13.32Q18.80 12.30 18.33 11.63L18.33 11.63L18.33 11.63Q17.93 11.07 17.20 11.07L17.20 11.07L17.20 11.07Q16.00 11.07 15.60 12.18L15.60 12.18L15.60 12.18Q15.41 12.70 15.41 13.32ZM26.90 8.09L23.95 8.09L23.95 7.24L30.86 7.24L30.86 8.09L27.91 8.09L27.91 17.60L26.90 17.60L26.90 8.09ZM31.47 17.60L30.56 17.60L30.56 17.60Q30.56 17.60 30.56 10.38L30.56 10.38L31.47 10.38L31.47 12.33L31.47 12.33Q31.79 11.61 31.96 11.35L31.96 11.35L31.96 11.35Q32.63 10.31 33.69 10.31L33.69 10.31L33.69 10.31Q33.78 10.31 33.94 10.32L33.94 10.32L33.94 11.09L33.94 11.09Q33.48 11.15 33.17 11.26L33.17 11.26L33.17 11.26Q32.86 11.38 32.57 11.62L32.57 11.62L32.57 11.62Q32.05 12.04 31.47 13.31L31.47 13.31L31.47 17.60ZM34.99 15.76L34.99 15.76L34.99 10.38L35.90 10.38L35.90 15.76L35.90 15.76Q35.90 16.27 36.26 16.59L36.26 16.59L36.26 16.59Q36.63 16.91 37.05 16.91L37.05 16.91L37.05 16.91Q38.06 16.91 39.15 15.72L39.15 15.72L39.15 10.38L40.05 10.38L40.05 17.60L39.15 17.60L39.15 16.41L39.15 16.41Q38.18 17.36 37.49 17.57L37.49 17.57L37.49 17.57Q37.15 17.67 36.79 17.67L36.79 17.67L36.79 17.67Q36.00 17.67 35.50 17.19L35.50 17.19L35.50 17.19Q34.99 16.71 34.99 15.76ZM41.32 14.04L41.32 14.04L41.32 14.04Q41.32 10.31 44.22 10.31L44.22 10.31L44.22 10.31Q44.94 10.31 45.43 10.65L45.43 10.65L45.43 10.65Q45.92 10.99 46.07 11.27L46.07 11.27L46.07 11.27Q46.35 11.73 46.45 12.04L46.45 12.04L45.73 12.37L45.73 12.37Q45.71 12.23 45.58 11.96L45.58 11.96L45.58 11.96Q45.45 11.70 45.29 11.53L45.29 11.53L45.29 11.53Q45.14 11.35 44.86 11.21L44.86 11.21L44.86 11.21Q44.58 11.07 44.22 11.07L44.22 11.07L44.22 11.07Q42.22 11.07 42.22 13.98L42.22 13.98L42.22 13.98Q42.22 15.39 42.75 16.15L42.75 16.15L42.75 16.15Q43.28 16.91 44.22 16.91L44.22 16.91L44.22 16.91Q44.87 16.91 45.30 16.41L45.30 16.41L45.30 16.41Q45.68 15.98 45.81 15.64L45.81 15.64L45.87 15.49L46.58 15.83L46.58 15.83Q46.34 16.50 45.79 17.04L45.79 17.04L45.79 17.04Q45.55 17.27 45.12 17.47L45.12 17.47L45.12 17.47Q44.70 17.67 44.22 17.67L44.22 17.67L44.22 17.67Q42.73 17.67 42.02 16.72L42.02 16.72L42.02 16.72Q41.32 15.76 41.32 14.04ZM48.92 17.60L48.02 17.60L48.02 7.24L48.92 7.24L48.92 13.95L51.69 10.38L52.77 10.38L50.88 12.84L53.19 17.60L52.19 17.60L50.26 13.62L48.92 15.28L48.92 17.60ZM63.39 17.60L57.78 17.60L57.78 7.24L58.80 7.24L58.80 16.63L63.39 16.63L63.39 17.60ZM64.05 15.84L64.05 15.84L64.05 15.84Q64.05 15.35 64.18 14.98L64.18 14.98L64.18 14.98Q64.30 14.62 64.56 14.33L64.56 14.33L64.56 14.33Q64.83 14.05 65.16 13.83L65.16 13.83L65.16 13.83Q65.50 13.61 65.99 13.43L65.99 13.43L65.99 13.43Q66.90 13.11 68.22 12.85L68.22 12.85L68.22 12.85Q68.22 11.77 67.80 11.41L67.80 11.41L67.80 11.41Q67.43 11.09 66.73 11.09L66.73 11.09L66.73 11.09Q65.86 11.09 65.24 11.74L65.24 11.74L65.24 11.74Q64.98 12.01 64.87 12.22L64.87 12.22L64.22 11.79L64.22 11.79Q64.99 10.32 66.83 10.32L66.83 10.32L66.83 10.32Q68.48 10.32 68.93 11.59L68.93 11.59L68.93 11.59Q69.12 12.10 69.12 12.83L69.12 12.83L69.12 16.58L69.12 16.58Q69.12 16.78 69.19 17.12L69.19 17.12L69.19 17.12Q69.27 17.47 69.33 17.60L69.33 17.60L68.42 17.60L68.42 17.60Q68.22 17.49 68.22 16.45L68.22 16.45L68.22 16.45Q67.25 17.68 66.09 17.68L66.09 17.68L66.09 17.68Q64.80 17.68 64.31 16.78L64.31 16.78L64.31 16.78Q64.05 16.32 64.05 15.84ZM65.13 15.05L65.13 15.05L65.13 15.05Q64.96 15.37 64.96 15.87L64.96 15.87L64.96 15.87Q64.96 16.38 65.31 16.65L65.31 16.65L65.31 16.65Q65.67 16.92 66.10 16.92L66.10 16.92L66.10 16.92Q66.53 16.92 66.87 16.79L66.87 16.79L66.87 16.79Q67.20 16.66 67.47 16.45L67.47 16.45L67.47 16.45Q67.97 16.08 68.22 15.78L68.22 15.78L68.22 13.62L68.22 13.62Q66.92 13.95 66.68 14.03L66.68 14.03L66.68 14.03Q65.47 14.42 65.13 15.05ZM74.98 16.46L74.98 16.46L74.98 16.46Q74.28 17.67 73.04 17.67L73.04 17.67L73.04 17.67Q72.41 17.67 71.90 17.36L71.90 17.36L71.90 17.36Q71.39 17.05 71.07 16.54L71.07 16.54L71.07 16.54Q70.42 15.46 70.42 14.11L70.42 14.11L70.42 14.11Q70.42 13.10 70.74 12.24L70.74 12.24L70.74 12.24Q71.07 11.38 71.70 10.85L71.70 10.85L71.70 10.85Q72.32 10.31 73.04 10.31L73.04 10.31L73.04 10.31Q73.75 10.31 74.30 10.68L74.30 10.68L74.30 10.68Q74.85 11.05 74.98 11.33L74.98 11.33L74.98 7.24L75.88 7.24L75.88 16.60L75.88 16.60Q75.88 16.80 75.94 17.13L75.94 17.13L75.94 17.13Q76.00 17.47 76.06 17.60L76.06 17.60L75.15 17.60L75.15 17.60Q74.98 17.51 74.98 16.46ZM71.32 14.11L71.32 14.11L71.32 14.11Q71.32 15.32 71.75 16.09L71.75 16.09L71.75 16.09Q72.20 16.91 73.18 16.91L73.18 16.91L73.18 16.91Q73.83 16.91 74.25 16.54L74.25 16.54L74.25 16.54Q74.58 16.24 74.98 15.70L74.98 15.70L74.98 12.11L74.98 12.11Q74.25 11.07 73.36 11.07L73.36 11.07L73.36 11.07Q71.32 11.07 71.32 14.11Z"></path></g><!----><g data-v-423bf9ae="" id="19b52dd9-4ec7-44de-9b15-a5372d39b149" transform="matrix(1.111122300889757,0,0,1.111122300889757,174.56177145996674,0.44332546094535275)" stroke="none" fill="white"><path d="M65.808 52.441l-1.007-14.968c-.181-2.169-1.999-3.848-4.221-3.848H19.407a4.228 4.228 0 0 0-4.232 3.848l-.98 14.968h51.613zm8.671 15.355c0-3.071-2.478-5.574-5.549-5.574a5.585 5.585 0 0 0-5.575 5.574c0 3.07 2.503 5.548 5.575 5.548s5.549-2.478 5.549-5.548M58.247 76.13V62.105a2.532 2.532 0 0 0-2.529-2.528H24.167c-1.354 0-2.49 1.134-2.49 2.528V76.13h36.57zm-47.19-2.786a5.55 5.55 0 0 0 5.55-5.548c0-3.071-2.492-5.574-5.55-5.574-3.07 0-5.561 2.503-5.561 5.574a5.552 5.552 0 0 0 5.561 5.548M60.581 29.69c4.259 0 7.769 3.304 8.116 7.486l1.033 15.42L79.988 58.8l-.026 26.053H75.38l.026 8.517c0 3.689-2.981 6.631-6.658 6.631a6.61 6.61 0 0 1-6.62-6.631v-8.517H17.846l.026 8.517c0 3.689-2.981 6.631-6.66 6.631a6.61 6.61 0 0 1-6.619-6.631v-8.517H.025L0 58.8l10.258-6.204 1.032-15.42c.323-4.182 3.833-7.486 8.117-7.486h41.174z"></path><path d="M72.634 0c4.051 0 7.327 3.279 7.327 7.304v47.293l-6.748-4.143-.878-13.807c-.605-5.949-5.651-10.607-11.756-10.607H19.404c-6.127 0-11.135 4.658-11.742 10.607l-.89 13.807L0 54.598.024 7.304C.024 3.279 3.301 0 7.328 0h65.306z"></path></g><!----></svg>